<svg width="72" height="72" viewBox="0 0 72 72" fill="none" xmlns="http://www.w3.org/2000/svg">
<path d="M16.7996 47.4C12.8288 47.4 9.59961 50.6292 9.59961 54.6C9.59961 58.5709 12.8288 61.8 16.7996 61.8C20.7704 61.8 23.9996 58.5709 23.9996 54.6C23.9996 50.6292 20.7703 47.4 16.7996 47.4ZM16.7996 59.4C14.1523 59.4 11.9997 57.2472 11.9997 54.6C11.9997 51.9528 14.1525 49.8001 16.7996 49.8001C19.4467 49.8001 21.5996 51.9529 21.5996 54.6C21.5996 57.2472 19.4467 59.4 16.7996 59.4Z" fill="black"/>
<path d="M57.6004 47.4C53.6296 47.4 50.4004 50.6292 50.4004 54.6C50.4004 58.5709 53.6296 61.8 57.6004 61.8C61.5712 61.8 64.8004 58.5709 64.8004 54.6C64.8004 50.6292 61.5712 47.4 57.6004 47.4ZM57.6004 59.4C54.9531 59.4 52.8004 57.2472 52.8004 54.6C52.8004 51.9528 54.9533 49.8001 57.6004 49.8001C60.2477 49.8001 62.4003 51.9529 62.4003 54.6C62.4003 57.2472 60.2477 59.4 57.6004 59.4Z" fill="black"/>
<path d="M71.8087 40.7509L61.0087 23.9508C60.788 23.6076 60.4076 23.4 59.9995 23.4H46.7996C46.136 23.4 45.5996 23.9376 45.5996 24.5999V54.5999C45.5996 55.2635 46.136 55.7999 46.7996 55.7999H51.5995V53.3998H47.9995V25.8H59.3443L69.5995 41.7528V53.4001H63.5995V55.8H70.7995C71.4631 55.8 71.9994 55.2637 71.9994 54.6V41.4C71.9996 41.1708 71.9336 40.9439 71.8087 40.7509Z" fill="black"/>
<path d="M52.8003 39V30.6H62.4003V28.2H51.6003C50.9367 28.2 50.4004 28.7376 50.4004 29.3999V40.1999C50.4004 40.8635 50.9367 41.3999 51.6003 41.3999H69.6003V38.9998H52.8003V39Z" fill="black"/>
<path d="M46.8 15H1.19995C0.537609 15 0 15.5377 0 16.2V54.6C0 55.2637 0.537609 55.8 1.19995 55.8H10.8V53.3999H2.40005V17.4H45.6V53.3999H22.8V55.8H46.8C47.4636 55.8 48 55.2637 48 54.6V16.2C48 15.5377 47.4636 15 46.8 15Z" fill="black"/>
<path d="M8.39922 48.6H1.19922V51H8.39922V48.6Z" fill="black"/>
<path d="M45.5993 48.6H25.1992V51H45.5993V48.6Z" fill="black"/>
<path d="M70.8 48.6H66V51H70.8V48.6Z" fill="black"/>
<path d="M46.8008 19.8H4.80078V22.2001H46.8008V19.8Z" fill="black"/>
<path d="M17.9997 53.3999H15.5996V55.8H17.9997V53.3999Z" fill="black"/>
<path d="M58.8004 53.3999H56.4004V55.8H58.8004V53.3999Z" fill="black"/>
<path d="M21.6008 10.2H4.80078V12.6H21.6008V10.2Z" fill="black"/>
<path d="M2.40005 10.2H0V12.6H2.40005V10.2Z" fill="black"/>
</svg>
