<svg width="72" height="72" viewBox="0 0 72 72" fill="none" xmlns="http://www.w3.org/2000/svg">
<g clip-path="url(#clip0)">
<path d="M55.1023 30.0905C51.7725 21.4378 54.414 13.1208 55.5421 9.56927C55.6241 9.31115 55.6987 9.07607 55.7637 8.86527L56.6225 6.07616L53.8416 6.96149C53.7 7.00668 51.9975 7.55253 49.3658 8.55266C49.3318 7.51834 49.3308 6.21415 49.4458 4.94674L49.5998 3.24857L47.8949 3.28292C47.7485 3.28597 44.2615 3.36993 40.0858 4.66221C39.4052 4.87286 38.7459 5.10427 38.1078 5.35491C33.8066 1.45943 26.9489 0.32559 26.6418 0.276439L24.9101 0L24.8749 1.75327C24.8038 5.31141 23.4044 7.74929 22.5378 8.92526C20.1947 7.78638 18.4479 7.07384 18.2677 7.00103L15.2915 5.79667L16.2362 8.86527C16.3012 9.07607 16.3759 9.31115 16.4578 9.56927C17.5859 13.1208 20.2274 21.4378 16.8976 30.0905C14.7891 35.5693 12.4471 43.5248 16.4345 49.3319C17.8235 51.3549 19.8865 52.9502 22.5703 54.0852C22.0133 55.5274 20.8838 57.9427 19.6934 59.6934L18.0722 62.0781H20.9558C25.754 62.0781 28.8214 60.8812 30.5498 59.8771C32.2902 58.8659 33.4893 57.5832 34.0189 56.2163C34.1693 56.2213 34.3216 56.225 34.4737 56.2288V72.0002H37.5266V56.2286C37.6784 56.2248 37.8308 56.2212 37.9813 56.2161C38.511 57.5831 39.7098 58.8657 41.4504 59.877C43.1787 60.8811 46.2462 62.078 51.0444 62.078H53.928L52.3068 59.6932C51.1165 57.9424 49.9871 55.5272 49.4301 54.0851C52.1137 52.95 54.1768 51.3549 55.5657 49.3317C59.553 43.5248 57.2109 35.5693 55.1023 30.0905V30.0905ZM46.3038 6.47196C46.2705 7.74929 46.3147 8.92068 46.3633 9.73718C44.0417 10.6863 41.3436 11.867 38.5103 13.262C36.7467 14.1304 35.0786 15.0078 33.5053 15.8941C32.8469 15.2722 32.1043 14.6629 31.3109 14.073C35.2642 8.37925 42.9352 6.86701 46.3038 6.47196V6.47196ZM27.79 3.64469C28.4412 3.80939 29.2448 4.0379 30.1212 4.34319C32.0642 5.02001 33.7309 5.85513 35.0453 6.80213C32.4356 8.26981 30.3233 10.1406 28.7883 12.3553C27.6254 11.6239 26.4292 10.9411 25.279 10.3241C26.2187 8.93915 27.3905 6.68307 27.79 3.64469V3.64469ZM23.1078 12.6327C26.3562 14.3244 28.9541 15.9884 30.7456 17.5179C26.9703 19.8416 23.8393 22.2216 21.3698 24.6447C22.0254 19.2519 21.0453 14.4438 20.1292 11.1623C21.012 11.5758 22.0318 12.0723 23.1078 12.6327ZM23.7275 58.8639C24.0746 58.2077 24.4147 57.5159 24.7318 56.8177C25.0293 56.1627 25.273 55.5796 25.4645 55.0676C27.0104 55.4813 28.7222 55.7877 30.5933 55.9843C29.579 57.1166 27.3885 58.4165 23.7275 58.8639V58.8639ZM42.9837 57.2372C42.2875 56.8328 41.7641 56.399 41.3967 55.9855C43.2718 55.7889 44.987 55.4821 46.5358 55.0676C46.7272 55.5796 46.971 56.1627 47.2685 56.8177C47.5844 57.5138 47.9235 58.2034 48.2695 58.8578C46.1972 58.5991 44.3748 58.0454 42.9837 57.2372V57.2372ZM53.0488 47.6038C50.5006 51.315 44.7645 53.1968 36.0001 53.1968C27.2357 53.1968 21.4997 51.315 18.9514 47.6038C15.9115 43.1765 17.7201 36.5977 19.5138 31.8018C25.6663 21.2931 44.7355 13.4982 51.9588 10.8519C50.6634 15.3821 49.1277 23.0653 52.2532 31.1871C54.1139 36.0219 56.2207 42.9842 53.0488 47.6038V47.6038Z" fill="black"/>
<path d="M7.76078 4.8C8.29094 4.8 8.72078 4.37016 8.72078 3.84V0.960001C8.72078 0.42984 8.29094 0 7.76078 0C7.23062 0 6.80078 0.42984 6.80078 0.960001V3.84C6.80078 4.37016 7.23062 4.8 7.76078 4.8Z" fill="black"/>
<path d="M7.76078 6.71997C7.23062 6.71997 6.80078 7.14981 6.80078 7.67997V10.56C6.80078 11.0901 7.23062 11.52 7.76078 11.52C8.29094 11.52 8.72078 11.0901 8.72078 10.56V7.67997C8.72078 7.14981 8.29094 6.71997 7.76078 6.71997V6.71997Z" fill="black"/>
<path d="M6.8 5.75999C6.8 5.22983 6.37016 4.79999 5.84 4.79999H2.96C2.42984 4.79999 2 5.22983 2 5.75999C2 6.29015 2.42984 6.71999 2.96 6.71999H5.84C6.37016 6.71999 6.8 6.29015 6.8 5.75999Z" fill="black"/>
<path d="M9.6807 6.71999H12.5607C13.0909 6.71999 13.5207 6.29015 13.5207 5.75999C13.5207 5.22983 13.0909 4.79999 12.5607 4.79999H9.6807C9.15054 4.79999 8.7207 5.22983 8.7207 5.75999C8.7207 6.29015 9.15054 6.71999 9.6807 6.71999Z" fill="black"/>
<path d="M63.0397 9.93967C64.8925 9.93967 66.3997 8.43247 66.3997 6.57967C66.3997 4.72687 64.8925 3.21967 63.0397 3.21967C61.1869 3.21967 59.6797 4.72687 59.6797 6.57967C59.6797 8.43247 61.1869 9.93967 63.0397 9.93967ZM63.0397 5.13967C63.8338 5.13967 64.4797 5.78551 64.4797 6.57967C64.4797 7.37383 63.8338 8.01967 63.0397 8.01967C62.2455 8.01967 61.5997 7.37383 61.5997 6.57967C61.5997 5.78551 62.2455 5.13967 63.0397 5.13967Z" fill="black"/>
<path d="M9.60062 25.5797C10.1308 25.5797 10.5606 25.1499 10.5606 24.6197C10.5606 24.0895 10.1308 23.6597 9.60062 23.6597C9.07043 23.6597 8.64062 24.0895 8.64062 24.6197C8.64062 25.1499 9.07043 25.5797 9.60062 25.5797Z" fill="black"/>
<path d="M63.3604 20.5797C63.8906 20.5797 64.3204 20.1499 64.3204 19.6197C64.3204 19.0895 63.8906 18.6597 63.3604 18.6597C62.8302 18.6597 62.4004 19.0895 62.4004 19.6197C62.4004 20.1499 62.8302 20.5797 63.3604 20.5797Z" fill="black"/>
<path d="M29.7588 13.0997C30.289 13.0997 30.7188 12.6699 30.7188 12.1397C30.7188 11.6095 30.289 11.1797 29.7588 11.1797C29.2286 11.1797 28.7988 11.6095 28.7988 12.1397C28.7988 12.6699 29.2286 13.0997 29.7588 13.0997Z" fill="black"/>
</g>
<defs>
<clipPath id="clip0">
<rect width="72" height="72" fill="white"/>
</clipPath>
</defs>
</svg>
