<svg width="72" height="72" viewBox="0 0 72 72" fill="none" xmlns="http://www.w3.org/2000/svg">
<path d="M69.75 6.75H2.25C1.95163 6.75 1.66548 6.86853 1.4545 7.07951C1.24353 7.29048 1.125 7.57663 1.125 7.875V61.875C1.125 62.1734 1.24353 62.4595 1.4545 62.6705C1.66548 62.8815 1.95163 63 2.25 63H3.375V65.25C3.375 65.5484 3.49353 65.8345 3.7045 66.0455C3.91548 66.2565 4.20163 66.375 4.5 66.375H67.5C67.7984 66.375 68.0845 66.2565 68.2955 66.0455C68.5065 65.8345 68.625 65.5484 68.625 65.25V63H69.75C70.0484 63 70.3345 62.8815 70.5455 62.6705C70.7565 62.4595 70.875 62.1734 70.875 61.875V7.875C70.875 7.57663 70.7565 7.29048 70.5455 7.07951C70.3345 6.86853 70.0484 6.75 69.75 6.75ZM3.375 9H68.625V22.5H3.375V9ZM66.375 64.125H5.625V63H66.375V64.125ZM68.625 60.75H3.375V24.75H68.625V60.75Z" fill="black"/>
<path d="M6.75 54H65.25C65.5484 54 65.8345 53.8815 66.0455 53.6705C66.2565 53.4595 66.375 53.1734 66.375 52.875V29.25C66.375 28.9516 66.2565 28.6655 66.0455 28.4545C65.8345 28.2435 65.5484 28.125 65.25 28.125H6.75C6.45163 28.125 6.16548 28.2435 5.95451 28.4545C5.74353 28.6655 5.625 28.9516 5.625 29.25V52.875C5.625 53.1734 5.74353 53.4595 5.95451 53.6705C6.16548 53.8815 6.45163 54 6.75 54ZM64.125 51.75H7.875V47.25H64.125V51.75ZM7.875 30.375H64.125V45H7.875V30.375Z" fill="black"/>
<path d="M36.6239 36.1856C37.0872 35.961 37.4821 35.6169 37.7681 35.1887C38.054 34.7606 38.2206 34.264 38.2507 33.75C38.2507 33.4516 38.1322 33.1655 37.9212 32.9545C37.7102 32.7435 37.4241 32.625 37.1257 32.625C36.8273 32.625 36.5412 32.7435 36.3302 32.9545C36.1192 33.1655 36.0007 33.4516 36.0007 33.75C36.0007 33.876 35.8173 34.0189 35.3763 34.3125C34.8949 34.5123 34.4834 34.8503 34.1939 35.2838C33.9045 35.7173 33.75 36.2269 33.75 36.7481C33.75 37.2694 33.9045 37.779 34.1939 38.2125C34.4834 38.646 34.8949 38.984 35.3763 39.1838C35.8173 39.4774 36.0007 39.6203 36.0007 39.7463C36.0007 39.8723 35.8162 40.0174 35.3763 40.3088C34.9127 40.5343 34.5176 40.8794 34.2319 41.3085C33.9461 41.7377 33.78 42.2353 33.7507 42.75C33.7507 43.0484 33.8692 43.3345 34.0802 43.5455C34.2912 43.7565 34.5773 43.875 34.8757 43.875C35.1741 43.875 35.4602 43.7565 35.6712 43.5455C35.8822 43.3345 36.0007 43.0484 36.0007 42.75C36.0007 42.6217 36.1852 42.4789 36.6251 42.1875C37.1063 41.9873 37.5176 41.649 37.8068 41.2153C38.0961 40.7816 38.2505 40.272 38.2505 39.7507C38.2505 39.2295 38.0961 38.7199 37.8068 38.2862C37.5176 37.8525 37.1063 37.5142 36.6251 37.314C36.1852 37.0204 36.0007 36.8764 36.0007 36.7515C36.0007 36.6266 36.1841 36.4781 36.6239 36.1856Z" fill="black"/>
<path d="M25.3739 36.1856C25.8372 35.961 26.2321 35.6169 26.5181 35.1887C26.804 34.7606 26.9706 34.264 27.0007 33.75C27.0007 33.4516 26.8822 33.1655 26.6712 32.9545C26.4602 32.7435 26.1741 32.625 25.8757 32.625C25.5773 32.625 25.2912 32.7435 25.0802 32.9545C24.8692 33.1655 24.7507 33.4516 24.7507 33.75C24.7507 33.876 24.5673 34.0189 24.1263 34.3125C23.6449 34.5123 23.2334 34.8503 22.9439 35.2838C22.6545 35.7173 22.5 36.2269 22.5 36.7481C22.5 37.2694 22.6545 37.779 22.9439 38.2125C23.2334 38.646 23.6449 38.984 24.1263 39.1838C24.5673 39.4774 24.7507 39.6203 24.7507 39.7463C24.7507 39.8723 24.5662 40.0174 24.1263 40.3088C23.6627 40.5343 23.2676 40.8794 22.9819 41.3085C22.6961 41.7377 22.53 42.2353 22.5007 42.75C22.5007 43.0484 22.6192 43.3345 22.8302 43.5455C23.0412 43.7565 23.3273 43.875 23.6257 43.875C23.9241 43.875 24.2102 43.7565 24.4212 43.5455C24.6322 43.3345 24.7507 43.0484 24.7507 42.75C24.7507 42.6217 24.9352 42.4789 25.3751 42.1875C25.8563 41.9873 26.2676 41.649 26.5568 41.2153C26.8461 40.7816 27.0005 40.272 27.0005 39.7507C27.0005 39.2295 26.8461 38.7199 26.5568 38.2862C26.2676 37.8525 25.8563 37.5142 25.3751 37.314C24.9352 37.0204 24.7507 36.8764 24.7507 36.7515C24.7507 36.6266 24.9341 36.4781 25.3739 36.1856Z" fill="black"/>
<path d="M47.8739 36.1856C48.3372 35.961 48.7321 35.6169 49.0181 35.1887C49.304 34.7606 49.4706 34.264 49.5007 33.75C49.5007 33.4516 49.3822 33.1655 49.1712 32.9545C48.9602 32.7435 48.6741 32.625 48.3757 32.625C48.0773 32.625 47.7912 32.7435 47.5802 32.9545C47.3692 33.1655 47.2507 33.4516 47.2507 33.75C47.2507 33.876 47.0673 34.0189 46.6263 34.3125C46.1449 34.5123 45.7334 34.8503 45.4439 35.2838C45.1545 35.7173 45 36.2269 45 36.7481C45 37.2694 45.1545 37.779 45.4439 38.2125C45.7334 38.646 46.1449 38.984 46.6263 39.1838C47.0673 39.4774 47.2507 39.6203 47.2507 39.7463C47.2507 39.8723 47.0662 40.0174 46.6263 40.3088C46.1627 40.5343 45.7676 40.8794 45.4819 41.3085C45.1961 41.7377 45.03 42.2353 45.0007 42.75C45.0007 43.0484 45.1192 43.3345 45.3302 43.5455C45.5412 43.7565 45.8273 43.875 46.1257 43.875C46.4241 43.875 46.7102 43.7565 46.9212 43.5455C47.1322 43.3345 47.2507 43.0484 47.2507 42.75C47.2507 42.6217 47.4352 42.4789 47.8751 42.1875C48.3563 41.9873 48.7676 41.649 49.0568 41.2153C49.3461 40.7816 49.5005 40.272 49.5005 39.7507C49.5005 39.2295 49.3461 38.7199 49.0568 38.2862C48.7676 37.8525 48.3563 37.5142 47.8751 37.314C47.4352 37.0204 47.2507 36.8764 47.2507 36.7515C47.2507 36.6266 47.4341 36.4781 47.8739 36.1856Z" fill="black"/>
<path d="M10.125 11.25C9.23499 11.25 8.36496 11.5139 7.62494 12.0084C6.88491 12.5029 6.30814 13.2057 5.96754 14.0279C5.62695 14.8502 5.53783 15.755 5.71147 16.6279C5.8851 17.5008 6.31368 18.3026 6.94302 18.932C7.57236 19.5613 8.37418 19.9899 9.2471 20.1635C10.12 20.3372 11.0248 20.2481 11.8471 19.9075C12.6693 19.5669 13.3721 18.9901 13.8666 18.2501C14.3611 17.51 14.625 16.64 14.625 15.75C14.625 14.5565 14.1509 13.4119 13.307 12.568C12.4631 11.7241 11.3185 11.25 10.125 11.25V11.25ZM10.125 18C9.67999 18 9.24498 17.868 8.87497 17.6208C8.50496 17.3736 8.21657 17.0222 8.04627 16.611C7.87598 16.1999 7.83142 15.7475 7.91823 15.311C8.00505 14.8746 8.21934 14.4737 8.53401 14.159C8.84868 13.8443 9.24959 13.63 9.68605 13.5432C10.1225 13.4564 10.5749 13.501 10.986 13.6713C11.3972 13.8416 11.7486 14.13 11.9958 14.5C12.243 14.87 12.375 15.305 12.375 15.75C12.375 16.3467 12.1379 16.919 11.716 17.341C11.294 17.7629 10.7217 18 10.125 18Z" fill="black"/>
<path d="M21.375 11.25C20.485 11.25 19.615 11.5139 18.8749 12.0084C18.1349 12.5029 17.5581 13.2057 17.2175 14.0279C16.8769 14.8502 16.7878 15.755 16.9615 16.6279C17.1351 17.5008 17.5637 18.3026 18.193 18.932C18.8224 19.5613 19.6242 19.9899 20.4971 20.1635C21.37 20.3372 22.2748 20.2481 23.0971 19.9075C23.9193 19.5669 24.6221 18.9901 25.1166 18.2501C25.6111 17.51 25.875 16.64 25.875 15.75C25.875 14.5565 25.4009 13.4119 24.557 12.568C23.7131 11.7241 22.5685 11.25 21.375 11.25V11.25ZM21.375 18C20.93 18 20.495 17.868 20.125 17.6208C19.755 17.3736 19.4666 17.0222 19.2963 16.611C19.126 16.1999 19.0814 15.7475 19.1682 15.311C19.2551 14.8746 19.4693 14.4737 19.784 14.159C20.0987 13.8443 20.4996 13.63 20.936 13.5432C21.3725 13.4564 21.8249 13.501 22.236 13.6713C22.6472 13.8416 22.9986 14.13 23.2458 14.5C23.493 14.87 23.625 15.305 23.625 15.75C23.625 16.3467 23.3879 16.919 22.966 17.341C22.544 17.7629 21.9717 18 21.375 18Z" fill="black"/>
<path d="M32.625 11.25C31.735 11.25 30.865 11.5139 30.1249 12.0084C29.3849 12.5029 28.8081 13.2057 28.4675 14.0279C28.1269 14.8502 28.0378 15.755 28.2115 16.6279C28.3851 17.5008 28.8137 18.3026 29.443 18.932C30.0724 19.5613 30.8742 19.9899 31.7471 20.1635C32.62 20.3372 33.5248 20.2481 34.3471 19.9075C35.1693 19.5669 35.8721 18.9901 36.3666 18.2501C36.8611 17.51 37.125 16.64 37.125 15.75C37.125 14.5565 36.6509 13.4119 35.807 12.568C34.9631 11.7241 33.8185 11.25 32.625 11.25V11.25ZM32.625 18C32.18 18 31.745 17.868 31.375 17.6208C31.005 17.3736 30.7166 17.0222 30.5463 16.611C30.376 16.1999 30.3314 15.7475 30.4182 15.311C30.5051 14.8746 30.7193 14.4737 31.034 14.159C31.3487 13.8443 31.7496 13.63 32.186 13.5432C32.6225 13.4564 33.0749 13.501 33.486 13.6713C33.8972 13.8416 34.2486 14.13 34.4958 14.5C34.743 14.87 34.875 15.305 34.875 15.75C34.875 16.3467 34.6379 16.919 34.216 17.341C33.794 17.7629 33.2217 18 32.625 18Z" fill="black"/>
<path d="M65.25 11.25H51.75C51.4516 11.25 51.1655 11.3685 50.9545 11.5795C50.7435 11.7905 50.625 12.0766 50.625 12.375C50.625 12.6734 50.7435 12.9595 50.9545 13.1705C51.1655 13.3815 51.4516 13.5 51.75 13.5H65.25C65.5484 13.5 65.8345 13.3815 66.0455 13.1705C66.2565 12.9595 66.375 12.6734 66.375 12.375C66.375 12.0766 66.2565 11.7905 66.0455 11.5795C65.8345 11.3685 65.5484 11.25 65.25 11.25Z" fill="black"/>
<path d="M65.25 14.625H60.75C60.4516 14.625 60.1655 14.7435 59.9545 14.9545C59.7435 15.1655 59.625 15.4516 59.625 15.75C59.625 16.0484 59.7435 16.3345 59.9545 16.5455C60.1655 16.7565 60.4516 16.875 60.75 16.875H65.25C65.5484 16.875 65.8345 16.7565 66.0455 16.5455C66.2565 16.3345 66.375 16.0484 66.375 15.75C66.375 15.4516 66.2565 15.1655 66.0455 14.9545C65.8345 14.7435 65.5484 14.625 65.25 14.625Z" fill="black"/>
<path d="M65.25 18H64.125C63.8266 18 63.5405 18.1185 63.3295 18.3295C63.1185 18.5405 63 18.8266 63 19.125C63 19.4234 63.1185 19.7095 63.3295 19.9205C63.5405 20.1315 63.8266 20.25 64.125 20.25H65.25C65.5484 20.25 65.8345 20.1315 66.0455 19.9205C66.2565 19.7095 66.375 19.4234 66.375 19.125C66.375 18.8266 66.2565 18.5405 66.0455 18.3295C65.8345 18.1185 65.5484 18 65.25 18Z" fill="black"/>
<path d="M48.375 11.25H47.25C46.9516 11.25 46.6655 11.3685 46.4545 11.5795C46.2435 11.7905 46.125 12.0766 46.125 12.375C46.125 12.6734 46.2435 12.9595 46.4545 13.1705C46.6655 13.3815 46.9516 13.5 47.25 13.5H48.375C48.6734 13.5 48.9595 13.3815 49.1705 13.1705C49.3815 12.9595 49.5 12.6734 49.5 12.375C49.5 12.0766 49.3815 11.7905 49.1705 11.5795C48.9595 11.3685 48.6734 11.25 48.375 11.25Z" fill="black"/>
<path d="M6.75 58.5H12.375C12.6734 58.5 12.9595 58.3815 13.1705 58.1705C13.3815 57.9595 13.5 57.6734 13.5 57.375C13.5 57.0766 13.3815 56.7905 13.1705 56.5795C12.9595 56.3685 12.6734 56.25 12.375 56.25H6.75C6.45163 56.25 6.16548 56.3685 5.95451 56.5795C5.74353 56.7905 5.625 57.0766 5.625 57.375C5.625 57.6734 5.74353 57.9595 5.95451 58.1705C6.16548 58.3815 6.45163 58.5 6.75 58.5Z" fill="black"/>
<path d="M18 56.25H15.75C15.4516 56.25 15.1655 56.3685 14.9545 56.5795C14.7435 56.7905 14.625 57.0766 14.625 57.375C14.625 57.6734 14.7435 57.9595 14.9545 58.1705C15.1655 58.3815 15.4516 58.5 15.75 58.5H18C18.2984 58.5 18.5845 58.3815 18.7955 58.1705C19.0065 57.9595 19.125 57.6734 19.125 57.375C19.125 57.0766 19.0065 56.7905 18.7955 56.5795C18.5845 56.3685 18.2984 56.25 18 56.25Z" fill="black"/>
</svg>
