<svg width="122" height="48" viewBox="0 0 122 48" fill="none" xmlns="http://www.w3.org/2000/svg">
<g clip-path="url(#clip0)">
<path d="M8.12181 47.6494C7.42457 46.0499 6.787 44.3747 6.22614 42.6694C5.66528 40.9641 5.1709 39.2431 4.76176 37.5662C3.91546 34.1274 3.34565 30.6352 3.05702 27.1184C3.00928 26.5105 2.97007 25.8978 2.9428 25.2915C2.27994 25.7381 1.59196 26.1519 0.881762 26.531L0.585135 26.6889L0.164062 26.0036L0.453869 25.8457C1.24783 25.4024 2.0134 24.9168 2.74675 24.3915L2.90188 24.2794C2.81692 21.6797 2.97892 19.0781 3.38603 16.5047C3.67319 14.7427 4.0936 13.0016 4.64413 11.2941C5.18943 9.57627 5.90211 7.90783 6.77336 6.3094C7.21836 5.50135 7.7266 4.72454 8.294 3.98519C8.87023 3.22753 9.54084 2.53538 10.292 1.92308C11.0692 1.26902 11.9939 0.783568 12.9991 0.502031C13.4104 0.396047 13.8354 0.342918 14.2623 0.344137C14.3902 0.344137 14.518 0.344138 14.6425 0.359927C15.2152 0.407333 15.7695 0.571812 16.2654 0.841509C16.7521 1.11474 17.1705 1.48073 17.4928 1.91519C17.8008 2.33613 18.0286 2.8029 18.1662 3.29519C18.2982 3.76906 18.363 4.25686 18.3588 4.74625C18.3566 5.2064 18.3264 5.66607 18.2685 6.12309C18.0554 7.78256 17.486 9.47203 16.5279 11.291C15.6704 12.8887 14.6498 14.4067 13.4798 15.8241C12.3236 17.2354 11.0709 18.5766 9.72939 19.8394C8.39695 21.1014 6.99551 22.2993 5.5306 23.4284C5.1726 23.7047 4.78222 23.9936 4.33728 24.311C4.33728 25.2678 4.35944 26.1631 4.40376 27.041C4.59302 30.5063 5.06776 33.9532 5.82382 37.3515C6.18693 39.0126 6.63187 40.7162 7.14841 42.4136C7.66494 44.111 8.24967 45.772 8.89918 47.362L9.02874 47.6605L8.24285 47.9478L8.12181 47.6494ZM14.3015 1.5994C13.9893 1.60068 13.6788 1.64267 13.3793 1.72414C12.5725 1.96199 11.8321 2.36144 11.2108 2.89414C10.5482 3.44509 9.95775 4.06619 9.45152 4.74467C8.93201 5.43555 8.46766 6.16063 8.06215 6.91414C7.24573 8.44559 6.58154 10.0427 6.07783 11.6857C5.56202 13.3339 5.17293 15.0139 4.91348 16.7131C4.64731 18.419 4.47661 20.1366 4.40206 21.8589C4.38331 22.2805 4.36967 22.7241 4.36115 23.1994C4.55549 23.051 4.74301 22.9026 4.92712 22.7573C6.34469 21.6263 7.69835 20.4284 8.98271 19.1683C10.2653 17.9139 11.4643 16.5883 12.5729 15.1989C13.6799 13.8237 14.6429 12.3539 15.4488 10.8094C16.3233 9.09624 16.8331 7.52045 17.0104 5.99203C17.0568 5.58031 17.0785 5.16651 17.0751 4.75256C17.0733 4.36775 17.0159 3.9849 16.9047 3.61414C16.8021 3.25713 16.6331 2.91943 16.4052 2.61624C16.1872 2.33006 15.9067 2.08958 15.5818 1.91045C15.2579 1.73841 14.897 1.63488 14.5248 1.60729C14.4567 1.60098 14.3799 1.5994 14.3015 1.5994Z" fill="#201F1E"/>
<path d="M15.5231 41.3448C15.3187 41.345 15.1144 41.3355 14.9111 41.3164C14.3535 41.261 13.8103 41.1173 13.3052 40.8916C12.7786 40.6597 12.3132 40.324 11.9414 39.908C11.577 39.4946 11.3031 39.0194 11.1351 38.509C11.1112 38.4348 11.0873 38.3511 11.0669 38.2785C10.6119 38.4736 10.1439 38.6413 9.66559 38.7806L9.33998 38.8706L9.09961 38.1269L9.40987 38.029C9.85039 37.8801 10.2803 37.7056 10.697 37.5064L10.9015 37.4101C10.8361 36.7925 10.8475 36.17 10.9356 35.5548C10.9697 35.2974 11.0089 35.0622 11.0567 34.838C11.1078 34.5885 11.1777 34.3516 11.2442 34.129C11.3866 33.6703 11.5574 33.2196 11.7556 32.779C12.154 31.9061 12.6469 31.0729 13.2268 30.2922C13.8064 29.5004 14.4882 28.7771 15.2571 28.1385C16.0427 27.4808 16.9499 26.9598 17.9353 26.6006C18.4605 26.4064 19.0185 26.2995 19.5838 26.2848V26.2848C19.9055 26.2782 20.2259 26.3247 20.5299 26.4222C20.8833 26.5377 21.1905 26.7496 21.4113 27.0301C21.617 27.3031 21.7379 27.6231 21.7608 27.9553C21.7816 28.2363 21.7593 28.5186 21.6943 28.7937C21.5713 29.283 21.3817 29.7557 21.13 30.2006C20.6563 31.0348 20.0944 31.8234 19.4525 32.5548C19.1576 32.899 18.8439 33.2464 18.491 33.6174C18.158 33.9772 17.7992 34.3159 17.4171 34.6311C16.657 35.2418 15.8471 35.7972 14.9946 36.2922C14.19 36.7659 13.3223 37.2395 12.4153 37.669L12.3386 37.7053C12.3657 37.8518 12.4015 37.9968 12.446 38.1395C12.5528 38.5002 12.7315 38.8392 12.9728 39.139C13.2177 39.4328 13.5253 39.6768 13.8763 39.8559C14.2444 40.0344 14.6428 40.153 15.0543 40.2064C15.2803 40.2344 15.5081 40.2481 15.7362 40.2474C15.9503 40.247 16.1643 40.236 16.3772 40.2143C17.2971 40.1095 18.1975 39.8896 19.0536 39.5606C19.4747 39.4027 19.906 39.2211 20.3458 39.0159C20.6868 38.858 21.1487 38.629 21.5835 38.3716L21.8579 38.2137L22.3352 38.8453L22.0659 39.0285C21.2476 39.5753 20.3735 40.0465 19.4559 40.4353C18.5256 40.8478 17.5357 41.1334 16.517 41.2832C16.1877 41.3258 15.8555 41.3464 15.5231 41.3448V41.3448ZM19.6145 27.4738C19.2012 27.4947 18.7948 27.5806 18.4126 27.728C17.5812 28.0454 16.8165 28.4959 16.1538 29.059C14.8855 30.1232 13.8081 31.5853 13.0393 33.2732C12.6724 34.0456 12.4306 34.8639 12.3216 35.7016C12.2812 36.044 12.2612 36.3883 12.2619 36.7327C13.0222 36.3301 13.7484 35.9101 14.4252 35.479C15.2117 34.9865 15.9586 34.442 16.6602 33.8495C17.0016 33.557 17.3222 33.2442 17.6199 32.9132C17.9609 32.5485 18.2507 32.2122 18.5251 31.8806C19.1062 31.1994 19.6143 30.4676 20.0424 29.6953C20.2399 29.3368 20.3872 28.9563 20.4805 28.5632C20.5606 28.1953 20.5282 27.8811 20.397 27.7185C20.2657 27.5559 20.0049 27.4738 19.6673 27.4738H19.6145Z" fill="#201F1E"/>
<path d="M31.0525 41.5753C30.6282 40.6451 30.2656 39.6917 29.9666 38.7206C29.6737 37.7447 29.4415 36.7542 29.2711 35.7537C29.0961 34.7516 28.9914 33.74 28.9574 32.7253L28.9403 32.3527V31.7006C28.9403 31.5427 28.9403 31.3674 28.9403 31.2016C28.9403 31.0848 28.9523 30.9711 28.9574 30.8574C28.9744 30.4722 28.9932 30.0679 29.0375 29.6795C29.046 29.6085 29.0528 29.5343 29.0597 29.46C29.075 29.2832 29.0921 29.1016 29.121 28.9185V28.8695L28.3948 29.1458C27.7129 29.4079 27.0225 29.67 26.3321 29.9353L24.7876 30.5069L24.2455 30.7011C23.9045 30.8227 23.5636 30.9458 23.2226 31.0627L22.9158 31.17L22.6191 30.45L22.9175 30.3221C23.2482 30.1816 23.5789 30.0458 23.9113 29.9085L24.4381 29.6922L25.9724 29.0764C26.6543 28.8032 27.3362 28.5364 28.0181 28.2695L29.029 27.8748L29.3052 27.769L29.3699 27.4185C29.416 27.1564 29.4756 26.8927 29.5285 26.6685C29.7569 25.6754 30.0524 24.6967 30.4132 23.7379C30.7747 22.7828 31.1947 21.8476 31.6713 20.9369C32.1567 20.0302 32.7021 19.1522 33.3045 18.3079L33.4852 18.0569L34.1892 18.4516L34.0341 18.7153C33.7989 19.1132 33.5602 19.5411 33.3011 20.0211C33.0692 20.4585 32.8493 20.9069 32.6465 21.349C32.225 22.2412 31.8585 23.1547 31.5486 24.0853C31.2024 25.1187 30.9218 26.17 30.7082 27.2337L32.1112 26.7048L33.6557 26.1348L34.1927 25.9406C34.5336 25.8174 34.8746 25.6958 35.2155 25.5774L35.5224 25.47L35.8411 26.1774L35.5428 26.3053C35.2104 26.4458 34.878 26.5832 34.5438 26.7206L34.0222 26.9353L32.4879 27.5511C31.8299 27.8132 31.1701 28.0727 30.5087 28.3295C30.4303 28.83 30.3689 29.3195 30.3263 29.7837C30.2803 30.1564 30.2615 30.5337 30.2428 30.9C30.2428 31.0137 30.2308 31.1274 30.224 31.2427C30.224 31.4006 30.2155 31.5458 30.2138 31.699C30.2138 31.789 30.2138 31.8774 30.2138 31.9658V32.3321L30.2223 32.689C30.2613 34.6351 30.5207 36.572 30.9963 38.4679C31.1957 39.3016 31.4582 40.1716 31.8486 41.2943L31.9492 41.58L31.1906 41.8548L31.0525 41.5753Z" fill="#201F1E"/>
<path d="M113.091 47.6432C112.441 43.919 112.049 40.1604 111.914 36.39C111.877 35.3527 111.857 34.3106 111.855 33.2827C111.264 33.6157 110.648 33.9096 110.012 34.1621C109.046 34.5496 108.021 34.7973 106.974 34.8963C106.862 34.9042 106.756 34.909 106.657 34.909C106.473 34.9097 106.288 34.8954 106.106 34.8663C105.791 34.8206 105.49 34.71 105.227 34.5427C104.956 34.3627 104.742 34.1191 104.606 33.8369C104.485 33.5833 104.409 33.3128 104.383 33.0364C104.357 32.7611 104.357 32.4842 104.383 32.209L104.212 32.4111C103.544 33.1467 102.791 33.8127 101.967 34.3974C101.156 35.0285 100.233 35.5248 99.2397 35.8642C98.9759 35.9518 98.7044 36.0178 98.4282 36.0616C98.2502 36.0897 98.0701 36.1045 97.8895 36.1058C97.7599 36.1061 97.6305 36.0966 97.5026 36.0774C97.1167 36.0274 96.7645 35.8468 96.5138 35.5706C96.3734 35.4061 96.2718 35.2162 96.2155 35.0132C95.9751 35.0953 95.7569 35.1711 95.5489 35.2295C94.5759 35.5415 93.5762 35.777 92.5605 35.9337C92.0426 36.0083 91.5196 36.049 90.9955 36.0553H90.9444C90.4154 36.0634 89.8875 36.0072 89.3743 35.8879C88.8596 35.7736 88.3798 35.5522 87.9713 35.2406C87.1146 35.6367 86.2253 35.9693 85.3119 36.2353C84.8042 36.381 84.2833 36.4835 83.7555 36.5416C83.5291 36.5662 83.3015 36.5789 83.0736 36.5795C82.7512 36.5807 82.4296 36.5511 82.1138 36.4911C81.5495 36.3881 81.0182 36.1666 80.5608 35.8437C80.1155 35.5244 79.74 35.1295 79.4544 34.68C79.1791 34.2533 78.9561 33.7994 78.7896 33.3269C78.631 32.8958 78.4878 32.4458 78.3548 31.9516C78.3071 31.77 78.2628 31.5853 78.2202 31.3958C77.1933 32.6779 76.085 33.9021 74.901 35.0621C74.2016 35.7499 73.4618 36.4014 72.6849 37.0137C71.905 37.6346 71.0708 38.1945 70.1908 38.6874L69.8993 38.8453L69.4629 38.1869L69.7476 38.029C70.5756 37.545 71.3585 36.9978 72.0882 36.3932C72.8271 35.7869 73.5299 35.1438 74.1936 34.4669C75.5259 33.0962 76.7637 31.6491 77.8997 30.1342L77.9576 30.0569C77.9014 29.7221 77.8571 29.4253 77.823 29.1411C77.7019 28.2285 77.6218 27.2795 77.5843 26.3227C77.5144 24.4402 77.5714 22.5555 77.7548 20.6795C77.945 18.8035 78.2529 16.9393 78.677 15.0964C78.7861 14.6227 78.9072 14.1648 79.0367 13.7148C79.1373 13.3374 79.2601 12.9569 79.3777 12.5874L79.4527 12.3521C79.8141 11.31 80.1482 10.4574 80.5045 9.66793C80.9052 8.7774 81.3433 7.91214 81.8036 7.09583C82.2843 6.25267 82.8076 5.42846 83.3583 4.64372C83.9125 3.84706 84.514 3.07957 85.1602 2.34477C85.4874 1.96487 85.8399 1.60417 86.2154 1.26477C86.6126 0.890416 87.0733 0.578915 87.5792 0.342667C87.8487 0.222466 88.1428 0.157306 88.4418 0.151611C88.4988 0.15168 88.5557 0.154848 88.6123 0.161089C89.0087 0.202994 89.3736 0.381026 89.6352 0.660033C89.8435 0.882784 90.0079 1.13772 90.121 1.41319C90.2244 1.65819 90.3059 1.91061 90.3648 2.16793C90.557 3.12242 90.6387 4.09317 90.6086 5.06371C90.6086 5.55003 90.5915 6.02372 90.5404 6.50529C90.4961 6.94424 90.4262 7.41161 90.3273 7.92635C90.1568 8.82319 89.9181 9.72793 89.6181 10.6958C89.3522 11.5406 89.0419 12.4185 88.672 13.38C88.343 14.2185 87.9798 15.0758 87.5622 16.0027C86.807 17.6779 85.9512 19.3927 85.0187 21.0995C83.2761 24.3103 81.2765 27.3957 79.0367 30.33C79.1169 30.8306 79.2072 31.29 79.3129 31.7306C79.4305 32.2042 79.5567 32.6321 79.6948 33.0348C79.837 33.4447 80.0279 33.8387 80.2642 34.2095C80.4832 34.5642 80.7723 34.8776 81.1165 35.1332C81.4597 35.3748 81.858 35.5406 82.2809 35.6179C82.5367 35.6664 82.7972 35.6902 83.0582 35.689C83.2502 35.6888 83.442 35.6788 83.6327 35.659C84.1031 35.6063 84.5675 35.5149 85.0204 35.3858C85.8177 35.1611 86.5965 34.8835 87.3508 34.5553C87.1747 34.2782 87.0486 33.9763 86.9775 33.6616C86.9161 33.4021 86.8819 33.1377 86.8752 32.8721C86.8694 32.6176 86.8791 32.363 86.9042 32.1095C86.9552 31.5974 87.0743 31.093 87.2587 30.6079C87.6424 29.6521 88.2537 28.7887 89.047 28.0816C89.8169 27.3961 90.6968 26.8252 91.6553 26.389C92.1326 26.164 92.6299 25.9776 93.1418 25.8316C93.6555 25.6786 94.1843 25.5728 94.7204 25.5158C94.8903 25.4989 95.061 25.4899 95.2318 25.489C95.3461 25.489 95.4603 25.489 95.5728 25.5032C95.8987 25.5218 96.2168 25.603 96.507 25.7416C96.6818 25.8287 96.8351 25.9486 96.957 26.0937C97.0825 26.242 97.1699 26.4148 97.2127 26.599C97.2508 26.7607 97.2611 26.9269 97.2434 27.0916C97.2319 27.2328 97.2074 27.3728 97.1701 27.51C97.0192 28.0089 96.7832 28.4822 96.4712 28.9121C96.1835 29.3212 95.8639 29.7101 95.5148 30.0758C94.8313 30.7896 94.0874 31.4517 93.2901 32.0558C91.959 33.075 90.5256 33.9738 89.0095 34.74C89.2096 34.851 89.4237 34.9385 89.6471 35.0006C90.0907 35.1189 90.5493 35.1826 91.0109 35.19C91.091 35.19 91.1711 35.19 91.253 35.19C91.6521 35.1892 92.0507 35.1638 92.4463 35.1142C93.4125 34.9841 94.363 34.7684 95.2847 34.47C95.5574 34.3832 95.849 34.2853 96.166 34.17V34.0706C96.1729 33.9906 96.1814 33.91 96.1916 33.829C96.2223 33.5685 96.2581 33.3316 96.3024 33.1042C96.3948 32.6183 96.527 32.1395 96.6979 31.6721C97.0472 30.7255 97.5716 29.8424 98.2475 29.0621C98.9222 28.2864 99.7282 27.6172 100.634 27.0806C101.088 26.8017 101.571 26.5648 102.075 26.3732C102.572 26.1836 103.104 26.0829 103.641 26.0763H103.812C104.155 26.0944 104.49 26.1794 104.795 26.3258C104.957 26.4086 105.106 26.5111 105.239 26.6306C105.373 26.7539 105.488 26.8942 105.58 27.0474C105.743 27.3362 105.827 27.6577 105.825 27.9837C105.826 28.2766 105.773 28.5675 105.67 28.8442C105.565 29.1225 105.424 29.3877 105.249 29.6337H105.295C105.375 29.6389 105.451 29.6628 105.518 29.7031C105.585 29.7434 105.64 29.7989 105.677 29.8642L105.687 29.8832V29.9053C105.71 29.9634 105.718 30.0254 105.713 30.0869V30.1027L105.636 30.3521C105.502 30.7844 105.395 31.2236 105.315 31.6674C105.235 32.0879 105.217 32.5166 105.263 32.9416C105.295 33.1864 105.401 33.6316 105.742 33.8479C106.008 33.9981 106.317 34.0702 106.628 34.0548C106.712 34.0548 106.799 34.0548 106.891 34.0453C107.843 33.9584 108.776 33.738 109.657 33.3916C110.42 33.0928 111.154 32.7331 111.85 32.3164C111.85 31.7148 111.865 31.2111 111.879 30.7295C111.94 28.8032 112.065 26.9021 112.25 25.0769C112.591 21.9316 113.15 17.8232 114.586 13.9232C114.921 12.9925 115.367 12.0991 115.916 11.2595C116.215 10.7964 116.609 10.3919 117.076 10.069C117.372 9.8783 117.719 9.76883 118.079 9.75319H118.132C118.48 9.75629 118.819 9.85045 119.112 10.0248C119.604 10.3355 120.006 10.7529 120.283 11.2406C120.546 11.681 120.758 12.1463 120.914 12.6285C121.219 13.56 121.404 14.5221 121.463 15.4943L121.485 15.8006L120.656 15.8716L120.616 15.5685C120.509 14.6665 120.295 13.778 119.98 12.919C119.826 12.5054 119.628 12.1075 119.386 11.7316C119.188 11.3877 118.902 11.0939 118.553 10.8758C118.434 10.8071 118.297 10.7695 118.157 10.7669H118.13C117.981 10.7833 117.841 10.838 117.724 10.9248C117.39 11.179 117.108 11.4877 116.894 11.8358C116.411 12.6153 116.016 13.4392 115.716 14.2942C115.094 16.0479 114.615 17.8424 114.284 19.6627C113.943 21.3995 113.669 23.2058 113.456 25.189C113.263 26.9858 113.13 28.8632 113.062 30.7674C113.052 31.0327 113.043 31.2979 113.036 31.5569C113.548 31.1969 114.059 30.8085 114.53 30.3995C115.977 29.1567 117.238 27.7399 118.28 26.1869L118.45 25.9216L119.068 26.2658L118.897 26.5358C117.859 28.1692 116.58 29.6604 115.097 30.9664C114.44 31.546 113.741 32.084 113.006 32.5769C112.98 33.9127 112.982 35.1521 113.006 36.3663C113.094 40.1013 113.403 43.8289 113.931 47.5327L113.976 47.8485L113.142 47.9621L113.091 47.6432ZM97.2946 34.62C97.2946 34.7318 97.3289 34.8414 97.3935 34.9358C97.47 35.0215 97.5781 35.0777 97.6969 35.0937C97.7936 35.1102 97.8918 35.1181 97.9901 35.1174C98.3064 35.1086 98.6197 35.0586 98.9209 34.969C99.368 34.8405 99.8003 34.6712 100.211 34.4637C100.631 34.2463 101.033 34.0026 101.417 33.7342C102.204 33.2068 102.923 32.5988 103.563 31.9216C103.871 31.5879 104.144 31.2272 104.378 30.8448L104.548 30.5479C104.576 30.4958 104.605 30.4327 104.635 30.3679C104.325 30.6788 103.993 30.97 103.641 31.2395C102.845 31.8476 101.996 32.3942 101.103 32.8737C100.223 33.352 99.318 33.7888 98.3907 34.1827C98.0242 34.3327 97.6594 34.4795 97.2946 34.62ZM95.3358 26.49C95.1722 26.4904 95.0087 26.501 94.8466 26.5216C93.9243 26.6541 93.0369 26.9449 92.2298 27.379C91.4021 27.8058 90.6372 28.3296 89.9539 28.9374C89.2911 29.5209 88.7714 30.2296 88.4299 31.0153C88.2632 31.4056 88.1487 31.8134 88.089 32.2295C88.019 32.6351 88.0156 33.0482 88.0787 33.4548C88.1186 33.6799 88.1993 33.8972 88.3174 34.0974C88.9737 33.7816 89.6386 33.409 90.2983 33.0064C91.1207 32.5056 91.9097 31.9593 92.6611 31.3706C93.4096 30.7887 94.1067 30.1525 94.746 29.4679C95.0575 29.1333 95.3424 28.7782 95.5984 28.4053C95.8449 28.0612 96.0303 27.6827 96.1473 27.2842C96.1947 27.1336 96.2057 26.9751 96.1797 26.82C96.168 26.7739 96.1452 26.7307 96.113 26.6938C96.0809 26.6569 96.0401 26.6272 95.9939 26.6069C95.8338 26.5363 95.6596 26.4976 95.4824 26.4932L95.3358 26.49ZM103.689 27.259C103.301 27.2714 102.919 27.354 102.566 27.5021C102.141 27.6678 101.736 27.872 101.355 28.1116C100.572 28.5868 99.8696 29.168 99.2721 29.8358C98.6815 30.506 98.2133 31.2613 97.8861 32.0716C97.7179 32.4826 97.584 32.9049 97.4855 33.3348C97.4582 33.4532 97.4327 33.5748 97.4088 33.7027C98.5104 33.2479 99.5752 32.7202 100.595 32.1237C101.42 31.6431 102.202 31.1008 102.932 30.5021C103.286 30.212 103.612 29.8951 103.909 29.5548C104.189 29.2536 104.404 28.9058 104.543 28.53C104.602 28.3811 104.628 28.2227 104.619 28.0643C104.611 27.9059 104.568 27.7507 104.494 27.6079C104.412 27.4953 104.3 27.4041 104.169 27.3433C104.038 27.2824 103.892 27.2539 103.745 27.2606L103.689 27.259ZM88.4487 1.23951C88.3183 1.24545 88.1907 1.27608 88.0736 1.32951C87.6875 1.51612 87.3368 1.75985 87.0354 2.05109C86.6965 2.3616 86.3799 2.6923 86.0876 3.04109C85.4747 3.75247 84.9056 4.49522 84.3828 5.26582C83.8902 5.99846 83.406 6.80056 82.9457 7.65003C82.5264 8.4395 82.124 9.27793 81.7524 10.1479C81.4285 10.909 81.1251 11.7269 80.7995 12.7327C80.5454 13.5221 80.3153 14.37 80.0766 15.3853C79.6461 17.1791 79.3178 18.9927 79.093 20.8185C78.8582 22.6397 78.7443 24.4727 78.7521 26.3069C78.7521 27.2053 78.793 28.0437 78.8663 28.8332C79.6419 27.7532 80.4005 26.6227 81.1251 25.4795C82.136 23.8753 83.0906 22.2363 83.9618 20.6069C85.7491 17.3142 87.2369 13.8892 88.4094 10.3674C88.7504 9.31425 88.9686 8.49793 89.134 7.72109C89.2362 7.23319 89.3044 6.79741 89.359 6.3932C89.4152 5.94635 89.4306 5.4853 89.4408 5.04951C89.4527 4.55372 89.4408 4.11161 89.4152 3.70109C89.3949 3.26501 89.3379 2.83106 89.2448 2.40319C89.1715 2.0874 89.0436 1.65004 88.7879 1.38477C88.7209 1.30634 88.6238 1.25487 88.5168 1.24109C88.4943 1.23803 88.4714 1.2375 88.4487 1.23951V1.23951Z" fill="#201F1E"/>
<path d="M35.8405 38.059C35.4719 38.0658 35.1079 37.9825 34.7852 37.8174C34.5707 37.702 34.3848 37.546 34.2397 37.3595C34.1106 37.1903 34.0111 37.0033 33.9448 36.8053C33.8375 36.4656 33.788 36.1124 33.7982 35.7585C33.8005 35.4266 33.8364 35.0957 33.9056 34.7701C34.0436 34.1444 34.2694 33.5382 34.5773 32.9669C34.729 32.6811 34.8943 32.4064 35.0682 32.1443C35.2421 31.8822 35.4262 31.639 35.6359 31.3769C35.8456 31.1148 36.0502 30.8859 36.265 30.6553C36.4797 30.4248 36.7201 30.2006 36.9588 29.9859C37.4396 29.5505 37.9642 29.1588 38.5254 28.8159C38.8131 28.6418 39.1139 28.4872 39.4256 28.3532C39.7403 28.2135 40.0677 28.0999 40.4041 28.0138C40.7372 27.9277 41.0811 27.8826 41.4269 27.8795H41.4866C41.8828 27.8813 42.2719 27.977 42.6168 28.1574L42.8964 28.3153L42.5214 28.9816L42.2299 28.8648C42.0486 28.7966 41.8543 28.7633 41.6588 28.7669C41.6088 28.7669 41.5593 28.7669 41.5105 28.7669C41.2396 28.7913 40.9732 28.8475 40.7178 28.9343C40.1714 29.1263 39.6553 29.3854 39.1835 29.7048C38.2188 30.3734 37.3672 31.1717 36.657 32.0732C35.8405 33.1201 35.3444 34.0769 35.1432 34.9974C35.0867 35.2499 35.057 35.5069 35.0546 35.7648C35.0446 35.9972 35.0716 36.2297 35.1347 36.4548C35.1747 36.6043 35.2723 36.7352 35.4092 36.8227C35.5486 36.8891 35.7043 36.9206 35.8609 36.9143H35.9768C36.5313 36.8525 37.0687 36.6967 37.5623 36.4548C38.0998 36.2124 38.6132 35.9265 39.0965 35.6006C39.7944 35.1162 40.437 34.567 41.0144 33.9616C41.1682 33.254 41.3837 32.5591 41.6588 31.8838C41.7815 31.5901 41.9094 31.3043 42.044 31.0359L42.0611 31.0027C42.2002 30.7145 42.3674 30.4386 42.5606 30.1785C42.6776 30.0314 42.8094 29.895 42.9544 29.7711C43.1208 29.6259 43.3143 29.5098 43.5255 29.4285H43.5425C43.6514 29.3897 43.7668 29.3689 43.8835 29.3669C43.9719 29.368 44.0597 29.3808 44.1443 29.4048C44.3237 29.461 44.4727 29.5793 44.5602 29.7348C44.6159 29.8323 44.6468 29.9403 44.6506 30.0506C44.6555 30.1674 44.6429 30.2843 44.6131 30.398V30.4169C44.596 30.4959 44.5722 30.5748 44.5483 30.6601C44.3533 31.2684 44.0773 31.8518 43.7266 32.3969C43.3957 32.9277 43.0266 33.4372 42.6219 33.9222C42.4174 34.1669 42.1975 34.4116 41.9707 34.6516C41.9203 34.9402 41.8872 35.2312 41.8719 35.5232V35.618C41.8719 35.7222 41.8633 35.8201 41.8719 35.9037C41.8781 36.0025 41.8999 36.0998 41.9366 36.1927C41.9639 36.2634 42.0096 36.3269 42.0696 36.3774C42.1275 36.4223 42.1967 36.4527 42.2708 36.4659C42.3401 36.4802 42.4111 36.4871 42.4822 36.4864C42.6473 36.4832 42.8112 36.4598 42.9697 36.4169C43.2408 36.3417 43.5025 36.2401 43.7505 36.1138C44.2768 35.8448 44.7691 35.5223 45.2183 35.1522C45.6812 34.7792 46.1142 34.3755 46.5139 33.9443C47.3176 33.063 48.0374 32.119 48.6653 31.1227C49.3011 30.1327 49.8978 29.0953 50.4365 28.0422C50.4945 27.9269 50.5524 27.8116 50.607 27.6948V27.6869C50.3308 26.8106 50.0956 25.9074 49.8893 25.0027C49.3775 22.6701 49.0713 20.3028 48.9738 17.9243C48.8988 15.9711 48.8681 13.3943 49.2926 10.7843C49.4763 9.59165 49.7613 8.41431 50.145 7.26323C50.5293 6.09208 51.0717 4.97057 51.7594 3.92533C52.1124 3.39956 52.5115 2.90156 52.9527 2.43638C53.1813 2.1927 53.4297 1.96571 53.696 1.75743C53.9988 1.51187 54.3535 1.32743 54.7376 1.21585C54.8788 1.18061 55.0243 1.16256 55.1706 1.16217C55.2853 1.16116 55.3998 1.17282 55.5115 1.19691C55.7675 1.25429 56.0026 1.37299 56.1934 1.54112C56.482 1.808 56.7017 2.13187 56.8361 2.48848C57.0593 3.08033 57.2058 3.69463 57.2725 4.31848C57.3441 4.86322 57.3919 5.45375 57.4157 6.12638C57.4396 6.79901 57.4396 7.36586 57.4157 7.9248C57.3584 9.12128 57.2189 10.3132 56.9981 11.4932C56.5641 13.8305 55.9725 16.1402 55.2268 18.409C54.862 19.5285 54.4614 20.6622 54.0335 21.7785C53.6022 22.9264 53.1505 24.0427 52.6885 25.0943C52.3475 25.8838 51.9844 26.6511 51.623 27.3853C52.0346 28.7578 52.5502 30.1016 53.1658 31.4069C53.6729 32.4605 54.2603 33.4794 54.9234 34.4559C55.5919 35.4287 56.3439 36.35 57.172 37.2111L57.3953 37.4432L56.7611 37.9738L56.5293 37.7464C55.6439 36.8712 54.8399 35.9283 54.1256 34.928C53.4177 33.9251 52.7882 32.8766 52.2418 31.7906C51.744 30.7891 51.3097 29.7616 50.9411 28.7132C50.3598 29.8185 49.8637 30.6917 49.3523 31.5001C48.7109 32.5403 47.9734 33.5272 47.148 34.4495C46.4338 35.2216 45.4535 36.1864 44.1903 36.8685C43.8851 37.0329 43.5616 37.1663 43.2254 37.2664C42.9669 37.3436 42.6975 37.3851 42.4259 37.3895C42.2983 37.3892 42.171 37.3776 42.0457 37.3548C41.8079 37.3133 41.5853 37.2169 41.3984 37.0745C41.2116 36.9321 41.0666 36.7482 40.9769 36.5401C40.8662 36.2814 40.8118 36.0051 40.8166 35.7269C40.4958 36.0015 40.1601 36.2608 39.8108 36.5038C39.2696 36.8731 38.6946 37.198 38.0924 37.4748C37.4614 37.7832 36.7742 37.9807 36.0655 38.0574C35.9888 38.0559 35.9155 38.059 35.8405 38.059ZM55.1621 2.24691C55.1222 2.24775 55.0826 2.25359 55.0444 2.26427C54.8242 2.33537 54.6218 2.4471 54.4495 2.5927C54.2322 2.76457 54.0299 2.95199 53.8443 3.15322C53.4496 3.57302 53.0948 4.02365 52.7839 4.50006C52.1572 5.47211 51.6565 6.50929 51.2923 7.59006C50.9217 8.68346 50.6447 9.80218 50.4638 10.9358C50.1365 12.9048 50.0342 15.0411 50.1331 17.869C50.2056 20.1914 50.4792 22.5046 50.9513 24.7864C51.0502 25.2601 51.1644 25.7337 51.2923 26.2232C51.5088 25.759 51.7185 25.2869 51.923 24.8132C52.3731 23.7648 52.8112 22.658 53.2272 21.5211C53.6244 20.4159 53.996 19.2837 54.3301 18.1706C55.0145 15.9287 55.5446 13.6489 55.9173 11.3448C56.101 10.2027 56.2148 9.05194 56.2582 7.89796C56.2719 7.33427 56.2582 6.75164 56.2429 6.17059C56.2173 5.53111 56.1713 4.97217 56.1014 4.46059C56.0389 3.92231 55.9096 3.3925 55.7161 2.88164C55.645 2.68227 55.5287 2.49925 55.3752 2.3448C55.3494 2.31522 55.317 2.29115 55.2802 2.27425C55.2434 2.25735 55.2031 2.24803 55.1621 2.24691V2.24691Z" fill="#201F1E"/>
</g>
<defs>
<clipPath id="clip0">
<rect width="121.548" height="48" fill="white"/>
</clipPath>
</defs>
</svg>
